# xmcd
#
# Track frame offsets:
#       150
#       24753
#       52968
#       74669
#       96474
#       118253
#       133105
#       156964
#       173682
#       205620
#       224516
#       258945
#       277384
#       297797
#
# Disc length: 4221 seconds
#
# Revision: 1
# Processed by: cddbd v1.5.2PL0 Copyright (c) Steve Scherf et al.
# Submitted via: MusiCat 1.1
#
DISCID=db107b0e
DTITLE=Dor, Georges - Disc 1
DYEAR=1900
DGENRE=
TTITLE0=Le beau temps
TTITLE1=Montréal Matin
TTITLE2=J'suis Québécois
TTITLE3=Pour la musique
TTITLE4=La vie
TTITLE5=Ne cherchez pas ...
TTITLE6=Reste encore un peu
TTITLE7=Bouclier (version 1972)
TTITLE8=Un homme libre
TTITLE9=Il n"est pas venu ...
TTITLE10=Blanche-Neige
TTITLE11=Je t'aime je le jure
TTITLE12=Nous savons maintenant
TTITLE13=Monsieur Marcoux
EXTD=\n\n
EXTT0=
EXTT1=
EXTT2=
EXTT3=
EXTT4=
EXTT5=
EXTT6=
EXTT7=
EXTT8=
EXTT9=
EXTT10=
EXTT11=
EXTT12=
EXTT13=
PLAYORDER=
